<?xml version="1.0" standalone="no"?>
<!DOCTYPE svg PUBLIC "-//W3C//DTD SVG 20010904//EN"
 "http://www.w3.org/TR/2001/REC-SVG-20010904/DTD/svg10.dtd">
<svg version="1.0" xmlns="http://www.w3.org/2000/svg"
 width="524.000000pt" height="524.000000pt" viewBox="0 0 524.000000 524.000000"
 preserveAspectRatio="xMidYMid meet">
<metadata>
Created by potrace 1.14, written by Peter Selinger 2001-2017
</metadata>
<g transform="translate(0.000000,524.000000) scale(0.100000,-0.100000)"
fill="#000000" stroke="none">
<path d="M1294 5199 c-141 -18 -262 -154 -266 -298 -1 -28 -5 -31 -50 -40 -78
-17 -192 -65 -272 -115 -149 -93 -272 -243 -336 -406 -62 -163 -60 -118 -60
-1298 0 -684 4 -1101 10 -1142 15 -93 76 -264 124 -343 115 -192 249 -298 468
-372 150 -50 246 -56 801 -53 l468 2 -1 -536 c0 -484 1 -538 16 -553 9 -9 23
-15 30 -13 29 6 623 590 772 758 51 58 141 158 200 222 l107 118 430 3 430 4
95 26 c125 36 284 116 368 187 126 106 225 274 275 470 l22 85 -3 1108 c-3
1208 -2 1179 -61 1333 -47 121 -98 199 -191 293 -64 65 -105 97 -165 128 -89
46 -220 93 -259 93 -29 0 -41 18 -51 77 -7 43 -59 139 -98 182 -12 13 -49 37
-82 52 -51 25 -72 29 -141 29 -70 0 -89 -4 -142 -30 -99 -50 -165 -141 -181
-249 l-6 -46 -934 0 -934 0 -12 55 c-17 81 -38 124 -90 179 -71 76 -163 106
-281 90z m91 -233 c58 -24 65 -53 65 -246 0 -138 -3 -179 -16 -206 -31 -65
-88 -82 -138 -43 -50 39 -56 65 -56 236 0 186 9 226 53 253 38 24 47 24 92 6z
m2552 -13 c14 -9 32 -32 39 -50 15 -35 18 -183 5 -317 -6 -71 -10 -81 -39
-107 -56 -50 -129 -33 -158 37 -15 36 -20 259 -8 348 13 89 93 133 161 89z
m-387 -411 c5 -62 12 -89 40 -140 60 -113 148 -171 270 -179 68 -5 82 -3 132
21 61 29 131 98 175 174 21 35 27 62 31 124 5 89 -4 84 99 46 115 -42 247
-158 307 -267 14 -27 35 -84 46 -126 19 -73 20 -123 22 -1173 l2 -1097 -22
-80 c-34 -121 -68 -181 -153 -265 -85 -85 -154 -129 -261 -168 l-73 -27 -483
-2 -482 -2 -28 -33 c-60 -72 -135 -153 -341 -368 -119 -124 -253 -265 -299
-314 -46 -49 -86 -86 -89 -82 -4 3 -9 185 -11 404 l-5 397 -650 -3 c-580 -3
-659 -1 -727 14 -98 22 -161 50 -238 109 -77 58 -130 126 -177 227 -74 162
-70 84 -67 1313 4 1202 2 1166 63 1286 54 107 162 204 286 255 94 38 99 36
107 -44 9 -85 42 -157 101 -221 84 -90 189 -119 310 -86 55 15 72 25 110 67
61 68 102 157 116 249 l11 75 936 -4 937 -4 5 -76z"/>
<path d="M3345 3983 c-219 -49 -335 -96 -461 -190 -288 -215 -421 -557 -358
-924 24 -138 66 -243 144 -362 194 -294 428 -425 792 -444 l123 -6 209 -104
c115 -58 241 -124 280 -148 121 -73 140 -80 176 -65 55 23 71 80 50 188 -5 27
-14 139 -20 249 -6 109 -15 220 -21 247 -9 48 -8 53 41 150 123 246 142 544
50 799 -73 200 -240 397 -420 494 -158 85 -304 123 -465 122 -55 -1 -109 -3
-120 -6z m293 -238 c232 -55 423 -229 505 -461 53 -150 56 -299 7 -468 -25
-88 -53 -142 -98 -188 l-36 -38 22 -172 c12 -95 24 -200 28 -233 3 -33 7 -72
10 -87 5 -26 2 -25 -149 50 -291 145 -339 165 -370 153 -41 -16 -184 -13 -268
4 -116 25 -199 75 -314 190 -138 138 -197 245 -231 423 -18 94 -18 148 1 258
39 226 136 369 320 476 85 49 185 86 269 98 88 13 238 10 304 -5z"/>
<path d="M3813 3145 c-41 -18 -73 -69 -73 -118 0 -28 8 -46 33 -74 29 -31 41
-37 88 -41 45 -3 59 0 82 18 41 32 60 76 54 122 -6 46 -29 75 -74 94 -40 17
-69 17 -110 -1z"/>
<path d="M2992 3130 c-103 -64 -56 -213 71 -227 38 -5 48 -1 80 27 67 58 71
134 11 191 -35 32 -117 37 -162 9z"/>
<path d="M3398 3134 c-57 -30 -77 -127 -37 -178 45 -57 133 -74 183 -35 75 59
73 167 -4 213 -35 20 -106 20 -142 0z"/>
<path d="M1864 3941 c-45 -11 -99 -47 -120 -79 -15 -23 -17 -48 -15 -206 2
-193 9 -223 63 -274 38 -35 80 -42 248 -42 148 0 157 1 191 24 21 14 45 44 58
70 19 41 21 63 21 219 0 164 -1 176 -23 208 -12 18 -38 44 -56 56 -31 21 -45
23 -165 23 -72 0 -140 2 -151 4 -11 3 -34 1 -51 -3z m300 -150 c11 -17 -6
-270 -17 -268 -6 1 -12 -7 -14 -18 -3 -16 -2 -17 6 -5 9 13 11 13 11 -2 0 -16
-13 -18 -130 -18 -113 0 -130 2 -139 18 -11 21 -18 273 -7 290 9 14 281 17
290 3z"/>
<path d="M1055 3921 c-48 -29 -83 -77 -90 -124 -4 -23 -5 -104 -3 -178 3 -131
4 -137 33 -184 54 -87 62 -90 256 -93 159 -3 172 -2 204 18 19 12 46 41 60 64
24 41 25 49 25 225 0 200 -4 217 -60 265 -31 26 -32 26 -213 26 -160 0 -186
-2 -212 -19z m348 -258 c-4 -202 10 -183 -142 -183 -91 0 -132 4 -139 13 -15
18 -20 281 -5 298 9 11 42 14 150 12 l138 -2 -2 -138z"/>
<path d="M1367 3536 c-3 -8 -2 -18 3 -21 13 -8 20 9 11 24 -6 10 -10 9 -14 -3z"/>
<path d="M1051 3123 c-18 -9 -45 -34 -60 -56 -25 -38 -26 -48 -29 -188 -4
-183 4 -218 68 -281 l47 -48 178 0 c200 0 214 4 263 74 27 39 27 42 30 218 3
166 2 181 -18 216 -12 20 -36 47 -54 60 -30 21 -42 22 -212 22 -146 0 -185 -4
-213 -17z m357 -234 c2 -105 1 -117 -18 -134 -24 -22 -25 -29 -4 -49 14 -15 6
-16 -93 -17 -130 -1 -166 1 -175 9 -4 4 -8 71 -9 150 -2 106 0 145 10 151 7 4
74 7 149 7 l137 -1 3 -116z"/>
<path d="M1347 2763 c-4 -3 -7 -11 -7 -17 0 -6 5 -5 12 2 6 6 9 14 7 17 -3 3
-9 2 -12 -2z"/>
<path d="M1809 3117 c-18 -12 -44 -38 -56 -56 -22 -32 -23 -44 -23 -203 0
-180 8 -218 53 -266 37 -39 53 -43 207 -49 173 -7 208 -2 251 34 60 51 69 87
69 283 0 196 -7 220 -72 260 -30 18 -51 20 -214 20 -172 0 -183 -1 -215 -23z
m362 -121 c2 -2 2 -73 -1 -158 l-5 -153 -135 4 c-74 2 -140 8 -147 13 -12 10
-18 272 -7 290 5 8 287 12 295 4z"/>
<path d="M1055 2320 c-24 -12 -52 -38 -68 -62 l-28 -43 3 -176 c3 -173 3 -176
31 -218 51 -76 67 -81 256 -75 91 3 176 7 187 10 31 6 93 73 105 114 6 20 9
105 7 202 -3 185 -7 198 -78 246 -31 21 -43 22 -204 22 -151 0 -176 -2 -211
-20z m343 -257 c-3 -136 -3 -138 -25 -137 -13 0 -23 -3 -23 -7 0 -5 -7 -6 -16
-2 -8 3 -13 12 -10 19 3 8 1 14 -4 14 -6 0 -10 -13 -10 -30 0 -16 -4 -30 -10
-30 -5 0 -7 6 -5 13 4 9 -6 12 -35 12 -26 0 -40 -5 -40 -13 0 -10 -15 -12 -57
-10 l-58 3 -3 139 c-2 93 1 143 9 152 9 11 44 14 151 14 l139 0 -3 -137z"/>
<path d="M1376 1955 c-3 -8 -1 -15 4 -15 6 0 10 7 10 15 0 8 -2 15 -4 15 -2 0
-6 -7 -10 -15z"/>
<path d="M1809 2317 c-18 -12 -44 -38 -56 -56 -22 -32 -23 -43 -23 -211 0
-165 1 -180 23 -220 16 -30 37 -51 67 -67 42 -23 54 -24 213 -22 191 2 212 9
254 84 20 37 22 56 24 223 l2 182 -29 37 c-55 67 -77 73 -270 73 -161 0 -173
-1 -205 -23z m353 -124 c2 -5 1 -78 -2 -163 -3 -85 -7 -147 -8 -137 -1 10 -6
15 -12 12 -6 -4 -10 8 -10 29 0 20 -4 36 -10 36 -5 0 -10 -12 -10 -27 0 -28
-1 -28 -60 -27 -37 0 -57 -3 -53 -9 4 -6 -1 -8 -12 -3 -22 8 -57 -2 -50 -15 4
-5 -5 -9 -20 -9 -18 0 -28 7 -35 26 -11 28 -14 277 -3 287 9 10 281 9 285 0z"/>
<path d="M2138 2003 c5 -21 7 -23 10 -9 2 10 0 22 -6 28 -6 6 -7 0 -4 -19z"/>
<path d="M2141 1934 c0 -11 3 -14 6 -6 3 7 2 16 -1 19 -3 4 -6 -2 -5 -13z"/>
</g>
</svg>
